<svg width="18" height="18" viewBox="0 0 18 18" fill="none" xmlns="http://www.w3.org/2000/svg">
<path fill-rule="evenodd" clip-rule="evenodd" d="M2.94848 8.92306C2.94848 7.35897 3.56982 5.85893 4.6758 4.75295C5.78178 3.64696 7.28182 3.02563 8.84592 3.02563C10.41 3.02563 11.91 3.64696 13.016 4.75295C14.122 5.85893 14.7434 7.35897 14.7434 8.92306C14.7434 10.4872 14.122 11.9872 13.016 13.0932C11.91 14.1992 10.41 14.8205 8.84592 14.8205C7.28182 14.8205 5.78178 14.1992 4.6758 13.0932C3.56982 11.9872 2.94848 10.4872 2.94848 8.92306ZM8.84592 1.55127C4.77447 1.55127 1.47412 4.85162 1.47412 8.92306C1.47412 12.9945 4.77447 16.2949 8.84592 16.2949C12.9174 16.2949 16.2177 12.9945 16.2177 8.92306C16.2177 4.85162 12.9174 1.55127 8.84592 1.55127ZM9.5831 4.49999C9.5831 4.30448 9.50543 4.11697 9.36718 3.97872C9.22893 3.84048 9.04143 3.76281 8.84592 3.76281C8.6504 3.76281 8.4629 3.84048 8.32465 3.97872C8.1864 4.11697 8.10874 4.30448 8.10874 4.49999V8.92306C8.10878 9.11856 8.18647 9.30603 8.32473 9.44425L10.5363 11.6558C10.6753 11.7901 10.8615 11.8644 11.0548 11.8627C11.2481 11.861 11.433 11.7835 11.5697 11.6468C11.7063 11.5101 11.7839 11.3252 11.7855 11.132C11.7872 10.9387 11.7129 10.7525 11.5786 10.6134L9.5831 8.61787V4.49999Z" fill="#BF5FE1"/>
</svg>
