<svg width="18" height="19" viewBox="0 0 18 19" fill="none" xmlns="http://www.w3.org/2000/svg">
<path fill-rule="evenodd" clip-rule="evenodd" d="M2.94861 3.06409C3.14412 3.06409 3.33162 3.14175 3.46987 3.28C3.60812 3.41825 3.68578 3.60575 3.68578 3.80127V4.53845H5.16014V3.80127C5.16014 3.60575 5.23781 3.41825 5.37606 3.28C5.51431 3.14175 5.70181 3.06409 5.89732 3.06409C6.09284 3.06409 6.28034 3.14175 6.41859 3.28C6.55684 3.41825 6.6345 3.60575 6.6345 3.80127V4.53845H8.10886V3.80127C8.10886 3.60575 8.18653 3.41825 8.32478 3.28C8.46303 3.14175 8.65053 3.06409 8.84604 3.06409C9.04155 3.06409 9.22906 3.14175 9.36731 3.28C9.50555 3.41825 9.58322 3.60575 9.58322 3.80127V4.53845H11.0576V3.80127C11.0576 3.60575 11.1352 3.41825 11.2735 3.28C11.4117 3.14175 11.5992 3.06409 11.7948 3.06409C11.9903 3.06409 12.1778 3.14175 12.316 3.28C12.4543 3.41825 12.5319 3.60575 12.5319 3.80127V4.53845H14.0063V3.80127C14.0063 3.60575 14.084 3.41825 14.2222 3.28C14.3605 3.14175 14.548 3.06409 14.7435 3.06409C14.939 3.06409 15.1265 3.14175 15.2647 3.28C15.403 3.41825 15.4807 3.60575 15.4807 3.80127V14.1218C15.4807 14.7083 15.2477 15.2708 14.8329 15.6856C14.4182 16.1003 13.8557 16.3333 13.2691 16.3333H4.42296C3.83643 16.3333 3.27391 16.1003 2.85917 15.6856C2.44443 15.2708 2.21143 14.7083 2.21143 14.1218V3.80127C2.21143 3.60575 2.28909 3.41825 2.42734 3.28C2.56559 3.14175 2.75309 3.06409 2.94861 3.06409ZM14.0063 6.0128H3.68578V14.1218C3.68578 14.3173 3.76345 14.5048 3.9017 14.643C4.03995 14.7813 4.22745 14.859 4.42296 14.859H13.2691C13.4646 14.859 13.6521 14.7813 13.7904 14.643C13.9286 14.5048 14.0063 14.3173 14.0063 14.1218V6.0128ZM9.58322 8.22434C9.58322 8.41986 9.50555 8.60736 9.36731 8.74561C9.22906 8.88386 9.04155 8.96152 8.84604 8.96152C8.65053 8.96152 8.46303 8.88386 8.32478 8.74561C8.18653 8.60736 8.10886 8.41986 8.10886 8.22434C8.10886 8.02883 8.18653 7.84133 8.32478 7.70308C8.46303 7.56483 8.65053 7.48716 8.84604 7.48716C9.04155 7.48716 9.22906 7.56483 9.36731 7.70308C9.50555 7.84133 9.58322 8.02883 9.58322 8.22434ZM11.7948 8.96152C11.9903 8.96152 12.1778 8.88386 12.316 8.74561C12.4543 8.60736 12.5319 8.41986 12.5319 8.22434C12.5319 8.02883 12.4543 7.84133 12.316 7.70308C12.1778 7.56483 11.9903 7.48716 11.7948 7.48716C11.5992 7.48716 11.4117 7.56483 11.2735 7.70308C11.1352 7.84133 11.0576 8.02883 11.0576 8.22434C11.0576 8.41986 11.1352 8.60736 11.2735 8.74561C11.4117 8.88386 11.5992 8.96152 11.7948 8.96152ZM6.6345 10.4359C6.6345 10.6314 6.55684 10.8189 6.41859 10.9571C6.28034 11.0954 6.09284 11.1731 5.89732 11.1731C5.70181 11.1731 5.51431 11.0954 5.37606 10.9571C5.23781 10.8189 5.16014 10.6314 5.16014 10.4359C5.16014 10.2404 5.23781 10.0529 5.37606 9.91462C5.51431 9.77637 5.70181 9.6987 5.89732 9.6987C6.09284 9.6987 6.28034 9.77637 6.41859 9.91462C6.55684 10.0529 6.6345 10.2404 6.6345 10.4359ZM8.84604 11.1731C9.04155 11.1731 9.22906 11.0954 9.36731 10.9571C9.50555 10.8189 9.58322 10.6314 9.58322 10.4359C9.58322 10.2404 9.50555 10.0529 9.36731 9.91462C9.22906 9.77637 9.04155 9.6987 8.84604 9.6987C8.65053 9.6987 8.46303 9.77637 8.32478 9.91462C8.18653 10.0529 8.10886 10.2404 8.10886 10.4359C8.10886 10.6314 8.18653 10.8189 8.32478 10.9571C8.46303 11.0954 8.65053 11.1731 8.84604 11.1731ZM12.5319 10.4359C12.5319 10.6314 12.4543 10.8189 12.316 10.9571C12.1778 11.0954 11.9903 11.1731 11.7948 11.1731C11.5992 11.1731 11.4117 11.0954 11.2735 10.9571C11.1352 10.8189 11.0576 10.6314 11.0576 10.4359C11.0576 10.2404 11.1352 10.0529 11.2735 9.91462C11.4117 9.77637 11.5992 9.6987 11.7948 9.6987C11.9903 9.6987 12.1778 9.77637 12.316 9.91462C12.4543 10.0529 12.5319 10.2404 12.5319 10.4359ZM5.89732 13.3846C6.09284 13.3846 6.28034 13.3069 6.41859 13.1687C6.55684 13.0304 6.6345 12.8429 6.6345 12.6474C6.6345 12.4519 6.55684 12.2644 6.41859 12.1262C6.28034 11.9879 6.09284 11.9102 5.89732 11.9102C5.70181 11.9102 5.51431 11.9879 5.37606 12.1262C5.23781 12.2644 5.16014 12.4519 5.16014 12.6474C5.16014 12.8429 5.23781 13.0304 5.37606 13.1687C5.51431 13.3069 5.70181 13.3846 5.89732 13.3846ZM9.58322 12.6474C9.58322 12.8429 9.50555 13.0304 9.36731 13.1687C9.22906 13.3069 9.04155 13.3846 8.84604 13.3846C8.65053 13.3846 8.46303 13.3069 8.32478 13.1687C8.18653 13.0304 8.10886 12.8429 8.10886 12.6474C8.10886 12.4519 8.18653 12.2644 8.32478 12.1262C8.46303 11.9879 8.65053 11.9102 8.84604 11.9102C9.04155 11.9102 9.22906 11.9879 9.36731 12.1262C9.50555 12.2644 9.58322 12.4519 9.58322 12.6474ZM11.7948 13.3846C11.9903 13.3846 12.1778 13.3069 12.316 13.1687C12.4543 13.0304 12.5319 12.8429 12.5319 12.6474C12.5319 12.4519 12.4543 12.2644 12.316 12.1262C12.1778 11.9879 11.9903 11.9102 11.7948 11.9102C11.5992 11.9102 11.4117 11.9879 11.2735 12.1262C11.1352 12.2644 11.0576 12.4519 11.0576 12.6474C11.0576 12.8429 11.1352 13.0304 11.2735 13.1687C11.4117 13.3069 11.5992 13.3846 11.7948 13.3846Z" fill="#BF5FE1"/>
</svg>
