<svg width="18" height="18" viewBox="0 0 18 18" fill="none" xmlns="http://www.w3.org/2000/svg">
<path fill-rule="evenodd" clip-rule="evenodd" d="M8.08908 3.83053C7.94165 4.5773 7.69395 5.69781 6.78722 6.60454C6.70466 6.68711 6.61399 6.77409 6.51815 6.86698C5.67629 7.67861 4.42309 8.88759 4.42309 10.875C4.42309 11.9535 4.88751 12.976 5.60331 13.7316C6.32354 14.4916 7.24575 14.9295 8.10899 14.9295H11.7949C12.0544 14.9295 12.2711 14.8632 12.3994 14.7769C12.5063 14.7061 12.5321 14.6442 12.5321 14.5609C12.5321 14.4784 12.5063 14.4157 12.3994 14.3449C12.2711 14.2594 12.0544 14.1923 11.7949 14.1923H11.0577C10.8622 14.1923 10.6747 14.1147 10.5364 13.9764C10.3982 13.8382 10.3205 13.6507 10.3205 13.4552C10.3205 13.2596 10.3982 13.0721 10.5364 12.9339C10.6747 12.7956 10.8622 12.718 11.0577 12.718H12.1635C12.423 12.718 12.6397 12.6516 12.768 12.5654C12.8749 12.4946 12.9007 12.4327 12.9007 12.3494C12.9007 12.2668 12.8749 12.2042 12.768 12.1334C12.6397 12.0479 12.423 11.9808 12.1635 11.9808H11.4263C11.2308 11.9808 11.0433 11.9031 10.905 11.7649C10.7668 11.6266 10.6891 11.4391 10.6891 11.2436C10.6891 11.0481 10.7668 10.8606 10.905 10.7223C11.0433 10.5841 11.2308 10.5064 11.4263 10.5064H12.5321C12.7916 10.5064 13.0083 10.4401 13.1366 10.3538C13.2434 10.2831 13.2692 10.2211 13.2692 10.1378C13.2692 10.0553 13.2434 9.99262 13.1366 9.92185C13.0083 9.83634 12.7916 9.76925 12.5321 9.76925H11.7949C11.5994 9.76925 11.4119 9.69159 11.2736 9.55334C11.1354 9.41509 11.0577 9.22759 11.0577 9.03207C11.0577 8.83656 11.1354 8.64906 11.2736 8.51081C11.4119 8.37256 11.5994 8.29489 11.7949 8.29489H12.5321C12.7916 8.29489 13.0083 8.22855 13.1366 8.1423C13.2434 8.07153 13.2692 8.00961 13.2692 7.9263C13.2692 7.84374 13.2434 7.78108 13.1366 7.71031C13.0083 7.6248 12.7916 7.55771 12.5321 7.55771H9.21476C9.09755 7.55774 8.98203 7.52983 8.87778 7.47628C8.77352 7.42274 8.68353 7.34511 8.61528 7.24983C8.54703 7.15455 8.50248 7.04437 8.48532 6.92843C8.46817 6.81248 8.47891 6.69412 8.51665 6.58316V6.58243L8.5196 6.57505L8.52918 6.54557L8.56825 6.42025C8.60069 6.30967 8.64565 6.1497 8.6921 5.9573C8.80419 5.50637 8.87282 5.04574 8.89703 4.58172C8.9162 4.07675 8.84912 3.68973 8.71421 3.45384C8.6346 3.31377 8.51444 3.18771 8.23504 3.14791C8.19966 3.2688 8.16722 3.43393 8.12005 3.67573L8.08908 3.83053ZM10.1753 6.08336C10.2652 5.67201 10.3507 5.15967 10.3707 4.63627C10.3928 4.03547 10.3338 3.31672 9.99469 2.72329C9.61873 2.06278 8.95379 1.66028 8.03527 1.66028C7.75367 1.66028 7.48976 1.75316 7.27597 1.94041C7.0821 2.10996 6.97152 2.32079 6.90296 2.49034C6.79386 2.76089 6.72604 3.11178 6.66928 3.40813L6.64274 3.54451C6.49972 4.27211 6.31248 4.99454 5.74485 5.56217C5.67998 5.62704 5.6011 5.70223 5.51117 5.78701C4.68331 6.57137 2.94873 8.21602 2.94873 10.875C2.94873 12.3767 3.59008 13.75 4.53293 14.7452C5.47136 15.736 6.76069 16.4039 8.10899 16.4039H11.7949C12.2726 16.4039 12.793 16.2859 13.2176 16.0036C13.6636 15.7058 14.0064 15.2148 14.0064 14.5609C14.0064 14.2152 13.9106 13.9159 13.7558 13.6652C14.1163 13.363 14.375 12.9185 14.375 12.3494C14.375 12.0036 14.2792 11.7036 14.1244 11.4544C14.4849 11.1522 14.7436 10.7069 14.7436 10.1378C14.7436 9.6889 14.5829 9.31736 14.3374 9.03207C14.5822 8.74679 14.7436 8.37525 14.7436 7.9263C14.7436 7.27169 14.4008 6.78146 13.9548 6.48364C13.5302 6.20057 13.0098 6.08336 12.5321 6.08336H10.1753Z" fill="#BF5FE1"/>
</svg>
