<?xml version="1.0" standalone="no"?>
<!DOCTYPE svg PUBLIC "-//W3C//DTD SVG 20010904//EN"
 "http://www.w3.org/TR/2001/REC-SVG-20010904/DTD/svg10.dtd">
<svg version="1.0" xmlns="http://www.w3.org/2000/svg"
 width="700.000000pt" height="700.000000pt" viewBox="0 0 700.000000 700.000000"
 preserveAspectRatio="xMidYMid meet">
<metadata>
Created by potrace 1.14, written by Peter Selinger 2001-2017
</metadata>
<g transform="translate(0.000000,700.000000) scale(0.100000,-0.100000)"
fill="#000000" stroke="none">
<path d="M3240 6989 c-1013 -77 -1935 -584 -2549 -1403 -604 -805 -825 -1850
-605 -2851 97 -440 297 -890 557 -1255 211 -295 522 -610 802 -812 950 -684
2157 -853 3258 -454 476 173 896 443 1268 815 292 293 486 561 665 921 566
1140 462 2519 -269 3555 -161 227 -382 473 -582 645 -705 606 -1624 909 -2545
839z m-809 -1649 c75 -11 237 -42 360 -69 369 -81 558 -111 708 -111 109 0
309 27 499 66 469 98 549 114 644 125 120 14 303 7 396 -16 319 -77 608 -330
805 -706 268 -510 417 -1355 386 -2179 -8 -194 -16 -234 -76 -359 -135 -283
-439 -399 -760 -289 -192 66 -336 166 -587 407 -343 330 -545 462 -820 536
-145 39 -287 55 -478 55 -392 0 -635 -66 -903 -245 -128 -86 -233 -175 -417
-352 -280 -269 -459 -382 -678 -429 -280 -59 -544 67 -663 317 -59 124 -68
164 -76 358 -33 818 122 1687 391 2191 181 340 439 579 727 675 145 48 328 56
542 25z"/>
<path d="M2058 5130 c-281 -48 -540 -274 -717 -625 -164 -327 -266 -724 -327
-1275 -21 -191 -31 -795 -15 -900 23 -148 103 -264 219 -318 49 -23 70 -27
152 -27 106 0 160 14 277 72 105 52 216 140 406 322 328 313 535 455 793 544
322 112 750 133 1113 55 347 -74 596 -225 988 -600 195 -186 303 -271 419
-327 316 -156 586 -37 635 279 16 104 6 709 -15 900 -63 579 -184 1026 -364
1345 -158 282 -358 460 -602 537 -66 20 -93 23 -230 22 -168 -1 -189 -5 -650
-103 -545 -116 -712 -118 -1209 -15 -119 25 -277 58 -353 74 -230 48 -397 61
-520 40z m305 -392 c119 -56 214 -178 238 -311 12 -63 14 -67 39 -67 39 0 129
-29 177 -57 56 -32 134 -119 163 -180 72 -154 39 -345 -82 -466 -58 -58 -162
-109 -234 -115 l-51 -4 -11 -66 c-15 -88 -54 -163 -117 -227 -237 -236 -642
-104 -697 227 l-11 66 -51 4 c-70 6 -175 57 -229 111 -192 191 -158 500 71
646 50 31 138 61 182 61 24 0 27 5 38 60 29 158 128 277 277 332 76 28 220 21
298 -14z m2534 19 c59 -22 117 -72 147 -126 117 -217 -82 -465 -319 -396 -77
22 -154 97 -180 174 -46 141 29 296 168 348 18 6 59 11 92 11 33 0 74 -5 92
-11z m-546 -552 c136 -47 211 -207 163 -348 -67 -197 -331 -245 -468 -86 -123
144 -62 370 117 436 46 17 136 16 188 -2z m1096 2 c178 -66 239 -293 117 -435
-55 -65 -123 -96 -209 -95 -108 0 -186 46 -242 140 -31 53 -42 151 -23 209 27
82 103 162 176 184 42 12 144 10 181 -3z m-555 -547 c133 -37 220 -210 174
-347 -67 -202 -331 -253 -470 -92 -148 173 -26 449 198 449 34 0 78 -5 98 -10z"/>
<path d="M2156 4490 c-31 -10 -62 -35 -79 -65 -7 -12 -14 -86 -17 -180 l-5
-160 -167 -5 -168 -5 -31 -32 c-43 -42 -52 -115 -20 -166 36 -58 68 -67 240
-67 l151 0 0 -153 c0 -173 10 -206 71 -239 66 -35 146 -12 181 53 15 28 18 58
18 186 l0 153 151 0 c172 0 204 9 240 67 32 51 23 124 -20 166 l-31 32 -168 5
-167 5 -5 160 c-4 131 -8 166 -23 188 -33 50 -95 74 -151 57z"/>
</g>
</svg>
