<svg id="Layer_1" data-name="Layer 1" xmlns="http://www.w3.org/2000/svg" viewBox="0 0 16 16"><defs><style>.cls-1{fill:#fff;}</style></defs><title>icon</title><path class="cls-1" d="M13.43,10.73a.9.9,0,0,1-.5-.1,2.35,2.35,0,0,1-2-2.2A2.62,2.62,0,0,1,12,5.63a2.56,2.56,0,0,1,4,1.8,2.81,2.81,0,0,1-.6,2.3,2,2,0,0,1-1.8.9c0,.1-.1.1-.2.1Zm1-2.8a10.87,10.87,0,0,0-.1-1.8.8.8,0,0,0-.9-.7.88.88,0,0,0-.9.8c0,.7-.1,1.4-.1,2.1a6.15,6.15,0,0,0,.1,1.4.8.8,0,0,0,.9.7.81.81,0,0,0,.9-.8C14.33,9.13,14.43,8.53,14.43,7.93Z"/><path class="cls-1" d="M0,9.53c.2-.4.4-.6.7-.6s.5.1.5.4a.48.48,0,0,1-.2.6c-.1.1-.2.1-.3.2.3.4,1.2.4,1.4-.1a1.91,1.91,0,0,0,0-1.8c-.1-.2-.4-.3-.8-.3H.83c-.1,0-.1-.1-.2-.1.1-.1.1-.1.2-.1h.6a.63.63,0,0,0,.7-.7v-.9a.66.66,0,0,0-1.2-.3c.1.1.2.1.3.2a.53.53,0,0,1-.2.9.66.66,0,0,1-.7-.2.48.48,0,0,1,0-.7,2.65,2.65,0,0,1,.6-.5,2.26,2.26,0,0,1,2.1.2,1,1,0,0,1-.1,1.8,5.39,5.39,0,0,1-1,.3,3.09,3.09,0,0,1,.8.2,1.27,1.27,0,0,1,1,1.2,1.21,1.21,0,0,1-.8,1.3,6.89,6.89,0,0,0-.8.3h-1a1.39,1.39,0,0,1-1.2-1C0,9.63,0,9.63,0,9.53Z"/><path class="cls-1" d="M5,5.53h-.7v-.2h3.2A2.57,2.57,0,0,1,10,7.43a2.89,2.89,0,0,1-1.5,3.1,3.59,3.59,0,0,1-1.1.2h-3v-.2h.7C5,8.73,5,7.13,5,5.53Zm1.5,0v4.9c.4,0,.8-.1,1.2-.1a.9.9,0,0,0,.6-.6,9.15,9.15,0,0,0,0-3.3c-.1-.5-.4-.8-.8-.8A3.75,3.75,0,0,0,6.53,5.53Z"/></svg>