<svg id="Layer_1" data-name="Layer 1" xmlns="http://www.w3.org/2000/svg" viewBox="0 0 16 16"><defs><style>.cls-1{fill:#fff;fill-rule:evenodd;}</style></defs><title>icon</title><path class="cls-1" d="M8.14.5a5.9,5.9,0,0,1,3.75,1.31h0c-1.41-.37-3.56,1-3.75,1.22h0c-.28-.09-2.34-1.5-3.75-1.22h0A5.9,5.9,0,0,1,8.14.5Zm4.78,13.22c1.22-1.22-2.62-5.25-4.78-6.94h0C5.89,8.47,2.23,12.5,3.36,13.72A6.73,6.73,0,0,0,8.14,15.5,7.66,7.66,0,0,0,12.92,13.72ZM2.7,3h0A7.85,7.85,0,0,0,.55,8.38,8.33,8.33,0,0,0,2,13H2c-.56-1.78,2.16-6.09,3.57-7.88h0C3.55,2.66,2.8,2.94,2.7,3Zm7.88,2h0c2.15-2.34,2.81-2.06,2.9-2h0a7.66,7.66,0,0,1,2,5.35A8.33,8.33,0,0,1,14.05,13h0c.65-1.88-2.07-6.19-3.47-8Z"/></svg>