<svg id="Layer_1" data-name="Layer 1" xmlns="http://www.w3.org/2000/svg" viewBox="0 0 16 16"><defs><style>.cls-1{fill:#fff;}</style></defs><title>icon</title><path class="cls-1" d="M.5,12.22a4.77,4.77,0,0,0,1-.28A6,6,0,0,0,4.91,8.75a9.15,9.15,0,0,0,.75-2.81,27.57,27.57,0,0,0,.18-3.85V1.91h.94v4A12.67,12.67,0,0,1,6.5,8.66a6.34,6.34,0,0,1-1.78,3.18A6.51,6.51,0,0,1,.5,13.91Z"/><path class="cls-1" d="M7.16,2H8.84V14.09H7.16Z"/><path class="cls-1" d="M9.22,2h.94v.19a22.94,22.94,0,0,0,.18,3.56,9.81,9.81,0,0,0,1.13,3.56,5.88,5.88,0,0,0,3.75,2.91.35.35,0,0,1,.28.09v1.78c-.28-.09-.47-.09-.75-.18a7.75,7.75,0,0,1-4.5-3.19A7.29,7.29,0,0,1,9.31,8c-.09-2.06-.09-4-.09-6Z"/></svg>