<svg id="Layer_1" data-name="Layer 1" xmlns="http://www.w3.org/2000/svg" viewBox="0 0 16 16"><defs><style>.cls-1{fill:#fff;}</style></defs><title>icon</title><path class="cls-1" d="M3.37,10.85a1.47,1.47,0,0,1,.2-1.1,6.94,6.94,0,0,0,.5-1.3,7.19,7.19,0,0,1,1.2-2.1,2.09,2.09,0,0,0,.4-.6,1.08,1.08,0,0,0,.2-.8c0-.6-.1-1.2-.1-1.9a7.57,7.57,0,0,1,.1-1.5,1.78,1.78,0,0,1,.9-1.2,2.8,2.8,0,0,1,2-.2,2.32,2.32,0,0,1,1.5,1.4,7.79,7.79,0,0,1,.4,2.1,3.64,3.64,0,0,0,.2,1.5c.2.4.5.7.7,1.1.5.8,1,1.5,1.5,2.3a3.36,3.36,0,0,1,.3,2.6v.2a1.4,1.4,0,0,1,.3.9c0,.4.2.6.6.8h.1c.2.1.4.2.4.5a.6.6,0,0,1-.3.6,4.67,4.67,0,0,0-1,.5,13,13,0,0,0-1.5,1,1.14,1.14,0,0,1-1.8-.3c0-.1-.1-.1-.2-.1a9.85,9.85,0,0,0-1.7-.2,11,11,0,0,0-1.8.2.1.1,0,0,0-.1.1.93.93,0,0,1-1.2.4,9.29,9.29,0,0,1-1.3-.4,7.49,7.49,0,0,0-1.6-.4,1.14,1.14,0,0,1-.8-.3.45.45,0,0,1-.2-.6c0-.1,0-.1.1-.2a1.67,1.67,0,0,0,0-1,.57.57,0,0,1,.5-.8c.2-.1.4-.1.6-.2a1,1,0,0,0,.6-.5C3.17,11.15,3.27,11.05,3.37,10.85ZM6,13.45c.2.2.4.5.6.7l.1.1h1.5a3,3,0,0,0,2.1-1.2c0-.1.1-.1.1-.2a6.6,6.6,0,0,1,.1-1.4.27.27,0,0,1,.3-.3h.3a.1.1,0,0,0,.1-.1,5,5,0,0,0,0-2.1,27.73,27.73,0,0,0-1-2.6c-.2-.5-.4-.9-.6-1.4-.1-.1-.1-.1-.2-.1s-.2.1-.3.2a7.46,7.46,0,0,0-1.2.7.45.45,0,0,1-.5,0c-.1-.1-.3-.1-.4-.2s-.3-.3-.5-.4a3.26,3.26,0,0,1-.4,1.4,3,3,0,0,0-.4.8l-.6,1.5a3.92,3.92,0,0,0-.4,1.8c0,.5.4.8.7,1.1s.7.6,1.1.9A.59.59,0,0,1,6,13.45Zm-.7,2h0a.37.37,0,0,0,.3-.1c.4-.3.6-.6.4-1.1-.1-.3-.4-.5-.5-.7l-.9-1.5c-.2-.2-.4-.5-.6-.7s-.3-.1-.5.1-.1.3-.2.4a1,1,0,0,1-.5.4,2.54,2.54,0,0,0-.7.2c-.2.1-.3.2-.2.4a1.42,1.42,0,0,1-.1,1.1c0,.1,0,.1-.1.2-.1.3,0,.4.2.4s.2,0,.2.1a6.07,6.07,0,0,1,1.8.5C4.47,15.25,4.87,15.35,5.27,15.45Zm5.9-3.8c-.2,0-.3,0-.3.3v1.1a7.84,7.84,0,0,0-.2,1.4,1.7,1.7,0,0,0,.1.7c.1.4.4.5.8.3.1,0,.2-.1.3-.2a4.35,4.35,0,0,1,.7-.6,10.93,10.93,0,0,1,1.5-.8c.4-.2.4-.3,0-.6-.1-.1-.3-.1-.4-.2a1.14,1.14,0,0,1-.3-.8c0-.2,0-.3-.2-.4a1.33,1.33,0,0,1-1,.8.92.92,0,0,1-1-.6Zm-3.7-6.3c.1,0,.2,0,.2-.1.4-.2.7-.4,1.1-.6l.2-.2c-.1-.1-.2-.2-.3-.2a.1.1,0,0,1-.1-.1,6.89,6.89,0,0,1-.8-.3.66.66,0,0,0-.6.1,2.65,2.65,0,0,1-.6.5.19.19,0,0,0,0,.3,1.56,1.56,0,0,0,.8.6Zm1.4-1.6c.2.1.2.1.4-.1a1.2,1.2,0,0,0,0-1.4.67.67,0,0,0-1,0,.66.66,0,0,0-.2.7c0,.4,0,.4.3.5a1.27,1.27,0,0,1,.1-.6c0-.1.2-.3.3-.2s.2.1.3.2A.9.9,0,0,1,8.87,3.75ZM7,3.55c.1-.1.2-.1.3-.2l.1-.1a1.08,1.08,0,0,0-.2-.8.47.47,0,0,0-.8,0,1.06,1.06,0,0,0-.1,1.2,1.38,1.38,0,0,0,.3.4l.2-.2a.52.52,0,0,1-.3-.8c.1-.2.3-.2.5-.1a.37.37,0,0,1,.1.3A.37.37,0,0,0,7,3.55Z"/></svg>