<svg id="Layer_1" data-name="Layer 1" xmlns="http://www.w3.org/2000/svg" viewBox="0 0 16 16"><defs><style>.cls-1{fill:#fff;}</style></defs><title>icon</title><path class="cls-1" d="M15.92,7.55v1a7.79,7.79,0,0,1-.4,2.1,8.06,8.06,0,0,1-9.4,5.1,8,8,0,0,1-5.9-9.3,7.2,7.2,0,0,1,2.2-4.1A7.89,7.89,0,0,1,6.72.05c.1.1.4,0,.7,0h.9a1.27,1.27,0,0,1,.6.1,8.09,8.09,0,0,1,4.2,1.9,7.66,7.66,0,0,1,2.6,4.6A2.92,2.92,0,0,1,15.92,7.55Zm-8.5,0V5.15c-.9,0-1.8-.1-2.7-.1a10.68,10.68,0,0,0-.3,2.5Zm4,0a10.07,10.07,0,0,0-.3-2.5c-.9.1-1.8.1-2.7.2v2.3Zm-10.6,0h2.6l.3-2.7A13.64,13.64,0,0,1,2,4.45c-.1,0-.2,0-.2.1A7.1,7.1,0,0,0,1,6.35,5,5,0,0,1,.82,7.55Zm11.6,1c-.1.9-.2,1.8-.3,2.6a13.32,13.32,0,0,1,1.9.5,5.61,5.61,0,0,0,.9-3.1ZM14,4.45c-.7.1-1.3.3-1.9.4l.3,2.7H15A8.67,8.67,0,0,0,14,4.45Zm-5.6,6.4c.9.1,1.8.1,2.7.2a10.07,10.07,0,0,0,.3-2.5h-3Zm-3.7.1c.9-.1,1.8-.1,2.7-.2V8.45h-3A10.07,10.07,0,0,0,4.72,11ZM.92,8.55h0a7.5,7.5,0,0,0,.9,3,.14.14,0,0,0,.2,0l1.5-.3a.37.37,0,0,0,.3-.1c-.1-.9-.2-1.8-.3-2.6Zm7.5-7.5v3.2c.8,0,1.6-.1,2.4-.1-.1-.2-.1-.4-.2-.5a5.54,5.54,0,0,0-1.2-1.9A2.29,2.29,0,0,0,8.42,1.05ZM7.42,15v-3.2c-.8,0-1.6.1-2.4.1a6.54,6.54,0,0,0,1.3,2.3A1.78,1.78,0,0,0,7.42,15Zm0-13.9a2.18,2.18,0,0,0-.8.5,4.35,4.35,0,0,0-1.4,2.1c-.1.1-.1.3-.2.5.8.1,1.6.1,2.4.2Zm1,10.7V15c1.4-.6,1.9-1.8,2.4-3.1A19.27,19.27,0,0,1,8.42,11.75Zm-6,.6a6.64,6.64,0,0,0,3,2.2,8.53,8.53,0,0,1-1.3-2.5C3.52,12.15,2.92,12.25,2.42,12.35Zm8.1,2.3a7.1,7.1,0,0,0,3-2.2,10.46,10.46,0,0,1-1.7-.4A21,21,0,0,1,10.52,14.65Zm2.9-11a7.73,7.73,0,0,0-2.9-2.2c.2.4.5.8.7,1.2s.4.9.6,1.3Zm-8.1-2.1a6.58,6.58,0,0,0-2.9,2.1,7.49,7.49,0,0,1,1.6.4A6.61,6.61,0,0,1,5.32,1.55Z"/></svg>