<svg id="Layer_1" data-name="Layer 1" xmlns="http://www.w3.org/2000/svg" viewBox="0 0 16 16"><defs><style>.cls-1{fill:#fff;}</style></defs><title>icon</title><path class="cls-1" d="M4.35.05A4.44,4.44,0,0,0,0,4.45v7.2a4.44,4.44,0,0,0,4.4,4.4h7.3a4.44,4.44,0,0,0,4.4-4.4V4.35A4.44,4.44,0,0,0,11.65,0H4.35Zm0,.7h7.3a3.59,3.59,0,0,1,3.6,3.6v7.3a3.59,3.59,0,0,1-3.6,3.6H4.35a3.59,3.59,0,0,1-3.6-3.6V4.35A3.59,3.59,0,0,1,4.35.75Zm-1.2,4.7a.37.37,0,0,0-.4.4.43.43,0,0,0,.4.4.37.37,0,0,0,.4-.4A.43.43,0,0,0,3.15,5.45Zm3.8.2a2.16,2.16,0,0,0-2.2,2.4A2.11,2.11,0,0,0,7,10.45c1.3,0,2.1-.9,2.1-2.4A2.14,2.14,0,0,0,7,5.65Zm4.7,0c-1,0-1.7.5-1.7,1.4,0,.7.4,1.1,1.2,1.3l.6.1c.6.1.9.4.9.7s-.4.7-1,.7a1,1,0,0,1-1.1-.7h-.7a1.62,1.62,0,0,0,1.8,1.4c1.1,0,1.8-.6,1.8-1.4s-.4-1.1-1.3-1.3l-.5-.1c-.6-.1-.8-.3-.8-.7a.81.81,0,0,1,.9-.7,1,1,0,0,1,1,.7h.7A1.83,1.83,0,0,0,11.65,5.65ZM7,6.35c.9,0,1.4.7,1.4,1.7s-.5,1.8-1.4,1.8-1.4-.7-1.4-1.8S6.05,6.35,7,6.35ZM2.85,7v3.5h.7V7Z"/></svg>