<svg id="Layer_1" data-name="Layer 1" xmlns="http://www.w3.org/2000/svg" viewBox="0 0 16 16"><defs><style>.cls-1{fill:#fff;}</style></defs><title>icon</title><path class="cls-1" d="M3.64,10.68a1.36,1.36,0,0,1,.18-1A6.94,6.94,0,0,0,4.3,8.42a6.86,6.86,0,0,1,1.13-2,1.93,1.93,0,0,0,.37-.56A1,1,0,0,0,6,5.12C6,4.56,5.9,4,5.9,3.33A7.43,7.43,0,0,1,6,1.92,1.7,1.7,0,0,1,6.84.79,2.61,2.61,0,0,1,8.73.6a2.2,2.2,0,0,1,1.41,1.32,7.7,7.7,0,0,1,.38,2,3.58,3.58,0,0,0,.18,1.41c.19.38.48.66.66,1,.48.75,1,1.41,1.42,2.16A3.17,3.17,0,0,1,13.06,11v.19a1.32,1.32,0,0,1,.28.85c0,.38.19.57.57.76H14c.19.09.38.18.38.47a.56.56,0,0,1-.28.56,4.65,4.65,0,0,0-.95.47,12.92,12.92,0,0,0-1.41,1,1.08,1.08,0,0,1-1.7-.29c0-.09-.09-.09-.18-.09a8.84,8.84,0,0,0-1.61-.19,9.72,9.72,0,0,0-1.69.19s-.1,0-.1.09a.87.87,0,0,1-1.13.38,8.25,8.25,0,0,1-1.22-.38,6.68,6.68,0,0,0-1.51-.37,1.05,1.05,0,0,1-.75-.29.41.41,0,0,1-.19-.56c0-.1,0-.1.09-.19a1.48,1.48,0,0,0,0-.94.54.54,0,0,1,.47-.76c.19-.09.38-.09.57-.19a.93.93,0,0,0,.56-.47C3.45,11,3.54,10.87,3.64,10.68Zm2.45,2.45c.19.19.37.47.56.66l.1.1H8.16a2.93,2.93,0,0,0,2-1.13c0-.1.09-.1.09-.19a5.88,5.88,0,0,1,.1-1.32c0-.19.09-.29.28-.29h.28a.09.09,0,0,0,.1-.09,4.72,4.72,0,0,0,0-2c-.29-.85-.57-1.6-1-2.45-.18-.47-.37-.85-.56-1.32C9.38,5,9.38,5,9.29,5s-.19.09-.28.19a5.72,5.72,0,0,0-1.13.66.43.43,0,0,1-.47,0c-.1-.1-.29-.1-.38-.19s-.28-.29-.47-.38a3.07,3.07,0,0,1-.38,1.32,3,3,0,0,0-.38.75L5.24,8.8a3.71,3.71,0,0,0-.38,1.69c0,.47.38.76.66,1s.66.57,1,.85A.56.56,0,0,1,6.09,13.13ZM5.43,15h0a.33.33,0,0,0,.28-.1c.38-.28.57-.56.38-1-.1-.29-.38-.48-.47-.66l-.85-1.42c-.19-.19-.38-.47-.57-.66s-.28-.09-.47.1-.09.28-.19.37a.89.89,0,0,1-.47.38,2.53,2.53,0,0,0-.66.19c-.19.09-.28.19-.19.38a1.29,1.29,0,0,1-.09,1c0,.1,0,.1-.1.19-.09.28,0,.38.19.38s.19,0,.19.09a6,6,0,0,1,1.7.47C4.67,14.83,5.05,14.92,5.43,15ZM11,11.44c-.19,0-.29,0-.29.28v1a7.7,7.7,0,0,0-.18,1.31,1.65,1.65,0,0,0,.09.66c.09.38.38.48.75.29.1,0,.19-.1.29-.19a3.87,3.87,0,0,1,.66-.57,10.71,10.71,0,0,1,1.41-.75c.38-.19.38-.28,0-.57-.09-.09-.28-.09-.38-.18a1.08,1.08,0,0,1-.28-.76c0-.19,0-.28-.19-.38a1.25,1.25,0,0,1-.94.76c-.47,0-.85-.19-.94-.57ZM7.5,5.5c.09,0,.19,0,.19-.1.38-.18.66-.37,1-.56l.18-.19c-.09-.09-.18-.19-.28-.19a.09.09,0,0,1-.09-.09,6.15,6.15,0,0,1-.76-.29.61.61,0,0,0-.56.1,2.36,2.36,0,0,1-.57.47.18.18,0,0,0,0,.28,1.46,1.46,0,0,0,.76.57ZM8.82,4c.19.09.19.09.38-.09a1.14,1.14,0,0,0,0-1.32.63.63,0,0,0-.95,0,.62.62,0,0,0-.18.66c0,.37,0,.37.28.47a1.26,1.26,0,0,1,.09-.57c0-.09.19-.28.29-.19s.18.1.28.19A.85.85,0,0,1,8.82,4ZM7,3.8c.09-.09.19-.09.28-.19l.1-.09a1,1,0,0,0-.19-.75.44.44,0,0,0-.76,0A1,1,0,0,0,6.37,3.9a1.31,1.31,0,0,0,.28.37l.19-.19a.48.48,0,0,1-.28-.75c.09-.19.28-.19.47-.09a.35.35,0,0,1,.09.28A.35.35,0,0,0,7,3.8Z"/></svg>