<svg id="Layer_1" data-name="Layer 1" xmlns="http://www.w3.org/2000/svg" viewBox="0 0 16 16"><defs><style>.cls-1{fill:#fff;}</style></defs><title>icon</title><path class="cls-1" d="M15.47,7.57v.95a7.3,7.3,0,0,1-.38,2,7.61,7.61,0,0,1-8.86,4.81A7.54,7.54,0,0,1,.67,6.54,6.79,6.79,0,0,1,2.74,2.67,7.42,7.42,0,0,1,6.8.5c.09.09.37,0,.66,0H8.3a1.26,1.26,0,0,1,.57.09,7.59,7.59,0,0,1,4,1.8,7.21,7.21,0,0,1,2.45,4.33A2.67,2.67,0,0,1,15.47,7.57Zm-8,0V5.31c-.85,0-1.7-.1-2.55-.1a10.08,10.08,0,0,0-.28,2.36Zm3.77,0a9.48,9.48,0,0,0-.29-2.36c-.84.1-1.69.1-2.54.19V7.57Zm-10,0H3.68L4,5a13.61,13.61,0,0,1-1.61-.38c-.09,0-.19,0-.19.09a7.19,7.19,0,0,0-.75,1.7A4.38,4.38,0,0,1,1.23,7.57Zm10.94.95c-.09.84-.19,1.69-.28,2.45a12.14,12.14,0,0,1,1.79.47,5.35,5.35,0,0,0,.85-2.92Zm1.51-3.87c-.66.09-1.23.28-1.79.38l.28,2.54h2.45A8.13,8.13,0,0,0,13.68,4.65Zm-5.28,6c.85.1,1.7.1,2.54.19a9.4,9.4,0,0,0,.29-2.35H8.4Zm-3.49.1c.85-.1,1.7-.1,2.55-.19V8.42H4.63A9.48,9.48,0,0,0,4.91,10.78ZM1.33,8.52h0a7,7,0,0,0,.84,2.82.13.13,0,0,0,.19,0l1.42-.28A.35.35,0,0,0,4.06,11c-.09-.85-.19-1.7-.28-2.45ZM8.4,1.44v3c.75,0,1.51-.09,2.26-.09-.09-.19-.09-.38-.19-.48A5.14,5.14,0,0,0,9.34,2.1,2.19,2.19,0,0,0,8.4,1.44ZM7.46,14.55v-3c-.76,0-1.51.1-2.27.1A6.3,6.3,0,0,0,6.42,13.8,1.66,1.66,0,0,0,7.46,14.55Zm0-13.11a2.23,2.23,0,0,0-.76.47,4.14,4.14,0,0,0-1.32,2c-.09.1-.09.29-.19.48.76.09,1.51.09,2.27.18ZM8.4,11.53v3c1.32-.57,1.79-1.7,2.26-2.92A17.09,17.09,0,0,1,8.4,11.53Zm-5.66.57a6.26,6.26,0,0,0,2.83,2.07,8.14,8.14,0,0,1-1.23-2.35C3.78,11.91,3.21,12,2.74,12.1Zm7.64,2.17a6.69,6.69,0,0,0,2.83-2.08,10.39,10.39,0,0,1-1.61-.37A20,20,0,0,1,10.38,14.27ZM13.11,3.89a7.22,7.22,0,0,0-2.73-2.07c.19.38.47.75.66,1.13s.38.85.56,1.23Zm-7.64-2a6.25,6.25,0,0,0-2.73,2,7.25,7.25,0,0,1,1.51.38A6.3,6.3,0,0,1,5.47,1.91Z"/></svg>