<svg width="24" height="25" viewBox="0 0 24 25" fill="none" xmlns="http://www.w3.org/2000/svg">
<path fill-rule="evenodd" clip-rule="evenodd" d="M11.31 1.86749C11.496 1.6902 11.7431 1.59131 12 1.59131C12.257 1.59131 12.504 1.6902 12.69 1.86749L20.69 9.48611L23.19 11.866C23.3823 12.049 23.494 12.3009 23.5006 12.5662C23.5071 12.8316 23.408 13.0886 23.225 13.2809C23.042 13.4732 22.7901 13.5849 22.5248 13.5915C22.2594 13.598 22.0023 13.4989 21.81 13.3159L21 12.543V20.0906C21 20.621 20.7893 21.1297 20.4142 21.5047C20.0392 21.8798 19.5305 22.0905 19 22.0905H5.00002C4.46958 22.0905 3.96088 21.8798 3.5858 21.5047C3.21073 21.1297 3.00002 20.621 3.00002 20.0906V12.543L2.19002 13.3149C1.998 13.4979 1.74115 13.5971 1.47597 13.5908C1.2108 13.5844 0.959016 13.4729 0.776016 13.2809C0.593017 13.0889 0.493791 12.8321 0.500167 12.5669C0.506544 12.3018 0.618 12.05 0.810016 11.867L3.31002 9.48611L11.31 1.86649V1.86749ZM5.00002 10.6391V20.0906H9.00002V15.0908C9.00002 14.2952 9.31609 13.5322 9.8787 12.9696C10.4413 12.407 11.2044 12.091 12 12.091C12.7957 12.091 13.5587 12.407 14.1213 12.9696C14.6839 13.5322 15 14.2952 15 15.0908V20.0906H19V10.6391L12 3.97138L5.00002 10.6381V10.6391ZM13 20.0906V15.0908C13 14.8256 12.8947 14.5713 12.7071 14.3838C12.5196 14.1962 12.2652 14.0909 12 14.0909C11.7348 14.0909 11.4804 14.1962 11.2929 14.3838C11.1054 14.5713 11 14.8256 11 15.0908V20.0906H13Z" fill="#bf5fe1"/>
</svg>
