<svg width="24" height="25" viewBox="0 0 24 25" fill="none" xmlns="http://www.w3.org/2000/svg">
<path fill-rule="evenodd" clip-rule="evenodd" d="M8 9.98754C8 8.92668 8.42143 7.90926 9.17157 7.15912C9.92172 6.40897 10.9391 5.98754 12 5.98754C13.0609 5.98754 14.0783 6.40897 14.8284 7.15912C15.5786 7.90926 16 8.92668 16 9.98754C16 11.0484 15.5786 12.0658 14.8284 12.816C14.0783 13.5661 13.0609 13.9875 12 13.9875C10.9391 13.9875 9.92172 13.5661 9.17157 12.816C8.42143 12.0658 8 11.0484 8 9.98754ZM15.824 14.6105C16.7755 13.8234 17.461 12.7618 17.7868 11.5707C18.1127 10.3796 18.0631 9.11692 17.6448 7.95503C17.2265 6.79313 16.4599 5.78861 15.4495 5.07854C14.4392 4.36846 13.2344 3.98743 11.9995 3.98743C10.7646 3.98743 9.55978 4.36846 8.54946 5.07854C7.53913 5.78861 6.77251 6.79313 6.35421 7.95503C5.9359 9.11692 5.8863 10.3796 6.21217 11.5707C6.53803 12.7618 7.22349 13.8234 8.175 14.6105C4.986 15.7335 3 18.2345 3 20.9875C3 21.2528 3.10536 21.5071 3.29289 21.6947C3.48043 21.8822 3.73478 21.9875 4 21.9875C4.26522 21.9875 4.51957 21.8822 4.70711 21.6947C4.89464 21.5071 5 21.2528 5 20.9875C5 18.7175 7.355 15.9875 12 15.9875C16.645 15.9875 19 18.7175 19 20.9875C19 21.2528 19.1054 21.5071 19.2929 21.6947C19.4804 21.8822 19.7348 21.9875 20 21.9875C20.2652 21.9875 20.5196 21.8822 20.7071 21.6947C20.8946 21.5071 21 21.2528 21 20.9875C21 18.2345 19.016 15.7335 15.824 14.6105Z" fill="#bf5fe1"/>
</svg>
