<svg width="31" height="28" viewBox="0 0 31 28" fill="none" xmlns="http://www.w3.org/2000/svg">
<path fill-rule="evenodd" clip-rule="evenodd" d="M23 9.99996C22.2043 9.99996 21.4413 10.316 20.8787 10.8786C20.3161 11.4412 20 12.2043 20 13C20 13.7956 20.3161 14.5587 20.8787 15.1213C21.4413 15.6839 22.2043 16 23 16C23.7956 16 24.5587 15.6839 25.1213 15.1213C25.6839 14.5587 26 13.7956 26 13C26 12.2043 25.6839 11.4412 25.1213 10.8786C24.5587 10.316 23.7956 9.99996 23 9.99996ZM18 13C18 12.1849 18.1993 11.3822 18.5804 10.6618C18.9616 9.94137 19.513 9.32503 20.1868 8.86646C20.8606 8.40789 21.6363 8.121 22.4464 8.03075C23.2564 7.9405 24.0762 8.04964 24.8344 8.34866C25.5926 8.64769 26.2662 9.12753 26.7966 9.74641C27.327 10.3653 27.698 11.1044 27.8774 11.8995C28.0568 12.6945 28.0391 13.5214 27.8259 14.3081C27.6126 15.0947 27.2103 15.8173 26.654 16.413C28.3505 16.9648 29.8171 18.0617 30.826 19.533C30.9667 19.7521 31.0164 20.0176 30.9644 20.2728C30.9124 20.528 30.763 20.7529 30.5477 20.8996C30.3325 21.0463 30.0686 21.1032 29.812 21.0583C29.5554 21.0133 29.3265 20.8701 29.174 20.659C28.198 19.227 26.418 18 24 18C20.166 18 18 21.074 18 23C18 23.2652 17.8946 23.5195 17.7071 23.7071C17.5196 23.8946 17.2652 24 17 24C16.7348 24 16.4804 23.8946 16.2929 23.7071C16.1054 23.5195 16 23.2652 16 23C16 22.308 16.158 21.57 16.46 20.843C16.3815 20.7921 16.3105 20.7305 16.249 20.66C15.428 19.726 14.154 19 12.5 19C10.846 19 9.572 19.726 8.751 20.66C8.57323 20.8488 8.32905 20.9612 8.06999 20.9734C7.81093 20.9856 7.55726 20.8967 7.36251 20.7254C7.16776 20.5542 7.04716 20.3139 7.02617 20.0554C7.00518 19.7969 7.08543 19.5404 7.25 19.34C7.84051 18.6679 8.55658 18.1176 9.358 17.72C8.71771 17.0951 8.27822 16.2935 8.09567 15.4176C7.91312 14.5418 7.99579 13.6314 8.33313 12.8027C8.67047 11.9741 9.24717 11.2648 9.98955 10.7655C10.7319 10.2662 11.6063 9.99947 12.501 9.99947C13.3957 9.99947 14.2701 10.2662 15.0124 10.7655C15.7548 11.2648 16.3315 11.9741 16.6689 12.8027C17.0062 13.6314 17.0889 14.5418 16.9063 15.4176C16.7238 16.2935 16.2843 17.0951 15.644 17.72C16.3378 18.0643 16.9683 18.5234 17.509 19.078C18.1882 18.2233 19.0331 17.5148 19.993 16.995C19.3735 16.5294 18.8709 15.9261 18.525 15.2327C18.1791 14.5393 17.9993 13.7749 18 13V13ZM10 14.5C10 13.8369 10.2634 13.201 10.7322 12.7322C11.2011 12.2634 11.837 12 12.5 12C13.163 12 13.7989 12.2634 14.2678 12.7322C14.7366 13.201 15 13.8369 15 14.5C15 15.163 14.7366 15.7989 14.2678 16.2677C13.7989 16.7366 13.163 17 12.5 17C11.837 17 11.2011 16.7366 10.7322 16.2677C10.2634 15.7989 10 15.163 10 14.5Z" fill="#bf5fe1"/>
<mask id="path-2-inside-1_11663_10491" fill="white">
<path fill-rule="evenodd" clip-rule="evenodd" d="M6.99998 2.3335C7.15469 2.3335 7.30306 2.39496 7.41246 2.50436C7.52186 2.61376 7.58331 2.76214 7.58331 2.91686V6.41703H11.0833C11.238 6.41703 11.3864 6.47849 11.4958 6.58789C11.6052 6.69729 11.6666 6.84567 11.6666 7.00039C11.6666 7.15511 11.6052 7.30349 11.4958 7.41289C11.3864 7.52229 11.238 7.58375 11.0833 7.58375H7.58331V11.0839C7.58331 11.2386 7.52186 11.387 7.41246 11.4964C7.30306 11.6058 7.15469 11.6673 6.99998 11.6673C6.84527 11.6673 6.6969 11.6058 6.5875 11.4964C6.4781 11.387 6.41665 11.2386 6.41665 11.0839V7.58375H2.91665C2.76194 7.58375 2.61356 7.52229 2.50417 7.41289C2.39477 7.30349 2.33331 7.15511 2.33331 7.00039C2.33331 6.84567 2.39477 6.69729 2.50417 6.58789C2.61356 6.47849 2.76194 6.41703 2.91665 6.41703H6.41665V2.91686C6.41665 2.76214 6.4781 2.61376 6.5875 2.50436C6.6969 2.39496 6.84527 2.3335 6.99998 2.3335V2.3335Z"/>
</mask>
<path fill-rule="evenodd" clip-rule="evenodd" d="M6.99998 2.3335C7.15469 2.3335 7.30306 2.39496 7.41246 2.50436C7.52186 2.61376 7.58331 2.76214 7.58331 2.91686V6.41703H11.0833C11.238 6.41703 11.3864 6.47849 11.4958 6.58789C11.6052 6.69729 11.6666 6.84567 11.6666 7.00039C11.6666 7.15511 11.6052 7.30349 11.4958 7.41289C11.3864 7.52229 11.238 7.58375 11.0833 7.58375H7.58331V11.0839C7.58331 11.2386 7.52186 11.387 7.41246 11.4964C7.30306 11.6058 7.15469 11.6673 6.99998 11.6673C6.84527 11.6673 6.6969 11.6058 6.5875 11.4964C6.4781 11.387 6.41665 11.2386 6.41665 11.0839V7.58375H2.91665C2.76194 7.58375 2.61356 7.52229 2.50417 7.41289C2.39477 7.30349 2.33331 7.15511 2.33331 7.00039C2.33331 6.84567 2.39477 6.69729 2.50417 6.58789C2.61356 6.47849 2.76194 6.41703 2.91665 6.41703H6.41665V2.91686C6.41665 2.76214 6.4781 2.61376 6.5875 2.50436C6.6969 2.39496 6.84527 2.3335 6.99998 2.3335V2.3335Z" fill="#9747FF"/>
<path d="M7.58331 6.41703H5.58331V8.41703H7.58331V6.41703ZM7.58331 7.58375V5.58375H5.58331V7.58375H7.58331ZM6.41665 7.58375H8.41665V5.58375H6.41665V7.58375ZM6.41665 6.41703V8.41703H8.41665V6.41703H6.41665ZM6.99998 2.3335V4.3335V2.3335ZM6.99998 4.3335C6.62422 4.3335 6.26388 4.18422 5.99821 3.91854L8.82671 1.09018C8.34225 0.605695 7.68516 0.333496 6.99998 0.333496V4.3335ZM5.99821 3.91854C5.73255 3.65286 5.58331 3.29254 5.58331 2.91686H9.58331C9.58331 2.23174 9.31116 1.57466 8.82671 1.09018L5.99821 3.91854ZM5.58331 2.91686V6.41703H9.58331V2.91686H5.58331ZM7.58331 8.41703H11.0833V4.41703H7.58331V8.41703ZM11.0833 8.41703C10.7076 8.41703 10.3472 8.26775 10.0815 8.00207L12.91 5.17371C12.4256 4.68922 11.7685 4.41703 11.0833 4.41703V8.41703ZM10.0815 8.00207C9.81588 7.73639 9.66665 7.37607 9.66665 7.00039H13.6666C13.6666 6.31527 13.3945 5.65819 12.91 5.17371L10.0815 8.00207ZM9.66665 7.00039C9.66665 6.62471 9.81588 6.26439 10.0815 5.99871L12.91 8.82707C13.3945 8.34258 13.6666 7.6855 13.6666 7.00039H9.66665ZM10.0815 5.99871C10.3472 5.73303 10.7076 5.58375 11.0833 5.58375V9.58375C11.7685 9.58375 12.4256 9.31155 12.91 8.82707L10.0815 5.99871ZM11.0833 5.58375H7.58331V9.58375H11.0833V5.58375ZM5.58331 7.58375V11.0839H9.58331V7.58375H5.58331ZM5.58331 11.0839C5.58331 10.7082 5.73254 10.3479 5.99821 10.0822L8.82671 12.9106C9.31117 12.4261 9.58331 11.769 9.58331 11.0839H5.58331ZM5.99821 10.0822C6.26388 9.81655 6.62423 9.66728 6.99998 9.66728V13.6673C7.68515 13.6673 8.34224 13.3951 8.82671 12.9106L5.99821 10.0822ZM6.99998 9.66728C7.37573 9.66728 7.73608 9.81655 8.00175 10.0822L5.17325 12.9106C5.65772 13.3951 6.31481 13.6673 6.99998 13.6673V9.66728ZM8.00175 10.0822C8.26742 10.3479 8.41665 10.7082 8.41665 11.0839H4.41665C4.41665 11.769 4.68879 12.4261 5.17325 12.9106L8.00175 10.0822ZM8.41665 11.0839V7.58375H4.41665V11.0839H8.41665ZM6.41665 5.58375H2.91665V9.58375H6.41665V5.58375ZM2.91665 5.58375C3.2924 5.58375 3.65275 5.73303 3.91842 5.99871L1.08992 8.82707C1.57438 9.31155 2.23147 9.58375 2.91665 9.58375V5.58375ZM3.91842 5.99871C4.18408 6.26439 4.33331 6.6247 4.33331 7.00039H0.333313C0.333313 7.68551 0.605463 8.34259 1.08992 8.82707L3.91842 5.99871ZM4.33331 7.00039C4.33331 7.37607 4.18408 7.73639 3.91842 8.00207L1.08992 5.17371C0.605463 5.65819 0.333313 6.31527 0.333313 7.00039H4.33331ZM3.91842 8.00207C3.65275 8.26775 3.2924 8.41703 2.91665 8.41703V4.41703C2.23147 4.41703 1.57438 4.68923 1.08992 5.17371L3.91842 8.00207ZM2.91665 8.41703H6.41665V4.41703H2.91665V8.41703ZM8.41665 6.41703V2.91686H4.41665V6.41703H8.41665ZM8.41665 2.91686C8.41665 3.29254 8.26741 3.65286 8.00175 3.91854L5.17325 1.09018C4.6888 1.57466 4.41665 2.23174 4.41665 2.91686H8.41665ZM8.00175 3.91854C7.73608 4.18422 7.37574 4.3335 6.99998 4.3335L6.99998 0.333496C6.3148 0.333496 5.65771 0.605695 5.17325 1.09018L8.00175 3.91854Z" fill="#BF5FE1" mask="url(#path-2-inside-1_11663_10491)"/>
</svg>
