<svg width="34" height="33" viewBox="0 0 34 33" fill="none" xmlns="http://www.w3.org/2000/svg">
<g id="Heart" filter="url(#filter0_d_15095_6458)">
<path id="Vector" fill-rule="evenodd" clip-rule="evenodd" d="M12.3335 9.3333C10.4802 9.3333 9.00016 10.8173 9.00016 12.6226C9.00016 14.6546 10.1762 16.8226 11.9948 18.9466C13.5228 20.7293 15.3788 22.3373 17.0002 23.6346C18.6215 22.3373 20.4775 20.728 22.0055 18.9466C23.8242 16.8226 25.0002 14.6533 25.0002 12.6226C25.0002 10.8173 23.5202 9.3333 21.6668 9.3333C19.8135 9.3333 18.3335 10.8173 18.3335 12.6226C18.3335 12.9763 18.193 13.3154 17.943 13.5654C17.6929 13.8155 17.3538 13.956 17.0002 13.956C16.6465 13.956 16.3074 13.8155 16.0574 13.5654C15.8073 13.3154 15.6668 12.9763 15.6668 12.6226C15.6668 10.8173 14.1868 9.3333 12.3335 9.3333ZM17.0002 8.87863C16.4356 8.1863 15.7238 7.62853 14.9165 7.24589C14.1092 6.86325 13.2268 6.66537 12.3335 6.66663C9.03216 6.66663 6.3335 9.31997 6.3335 12.6226C6.3335 15.624 8.02283 18.4093 9.9695 20.6813C11.9442 22.9866 14.3655 24.972 16.1815 26.3853C16.4156 26.5674 16.7036 26.6662 17.0002 26.6662C17.2967 26.6662 17.5848 26.5674 17.8188 26.3853C19.6348 24.972 22.0562 22.9853 24.0308 20.6813C25.9775 18.4093 27.6668 15.624 27.6668 12.6226C27.6668 9.31997 24.9682 6.66663 21.6668 6.66663C19.7868 6.66663 18.1015 7.52797 17.0002 8.87863Z" fill="white"/>
</g>
<defs>
<filter id="filter0_d_15095_6458" x="-5" y="-6" width="44" height="43.9984" filterUnits="userSpaceOnUse" color-interpolation-filters="sRGB">
<feFlood flood-opacity="0" result="BackgroundImageFix"/>
<feColorMatrix in="SourceAlpha" type="matrix" values="0 0 0 0 0 0 0 0 0 0 0 0 0 0 0 0 0 0 127 0" result="hardAlpha"/>
<feOffset/>
<feGaussianBlur stdDeviation="3"/>
<feComposite in2="hardAlpha" operator="out"/>
<feColorMatrix type="matrix" values="0 0 0 0 0 0 0 0 0 0 0 0 0 0 0 0 0 0 0.6 0"/>
<feBlend mode="normal" in2="BackgroundImageFix" result="effect1_dropShadow_15095_6458"/>
<feBlend mode="normal" in="SourceGraphic" in2="effect1_dropShadow_15095_6458" result="shape"/>
</filter>
</defs>
</svg>
