<svg id="Layer_1" data-name="Layer 1" xmlns="http://www.w3.org/2000/svg" viewBox="0 0 16 16"><defs><style>.cls-1{fill:#515151;}</style></defs><title>icon</title><path class="cls-1" d="M14.39,5.28a3.69,3.69,0,0,0,.5,6.5,9.59,9.59,0,0,1-2.6,3.7,2,2,0,0,1-2.2.3,3.83,3.83,0,0,0-3.6,0,2.19,2.19,0,0,1-2.7-.6,9.74,9.74,0,0,1-2.6-5.5,5.29,5.29,0,0,1,.9-4.2,3.69,3.69,0,0,1,4.6-1.4,4.42,4.42,0,0,0,3.2,0A3.54,3.54,0,0,1,14.39,5.28Z"/><path class="cls-1" d="M11,0c.5,1.7-1.3,3.8-3.1,3.8C7.39,2.18,9.09.08,11,0Z"/></svg>