<svg id="Layer_1" data-name="Layer 1" xmlns="http://www.w3.org/2000/svg" viewBox="0 0 16 16"><defs><style>.cls-1{fill:#515151;}</style></defs><title>icon</title><path class="cls-1" d="M13.05,10.54a.77.77,0,0,1-.46-.1,2.17,2.17,0,0,1-1.86-2,2.45,2.45,0,0,1,1-2.61,2.38,2.38,0,0,1,3.72,1.68,2.62,2.62,0,0,1-.56,2.14,1.89,1.89,0,0,1-1.67.83c0,.1-.1.1-.19.1ZM14,7.93a10.45,10.45,0,0,0-.09-1.67.74.74,0,0,0-.84-.65.83.83,0,0,0-.84.74c0,.65-.09,1.3-.09,2a6,6,0,0,0,.09,1.3.75.75,0,0,0,.84.65.75.75,0,0,0,.84-.75C13.89,9.05,14,8.49,14,7.93Z"/><path class="cls-1" d="M.59,9.42c.19-.37.37-.56.65-.56s.47.1.47.37a.45.45,0,0,1-.19.56c-.09.1-.18.1-.28.19.28.37,1.12.37,1.31-.09a1.84,1.84,0,0,0,0-1.68.84.84,0,0,0-.75-.28H1.34c-.1,0-.1-.09-.19-.09.09-.09.09-.09.19-.09h.55a.59.59,0,0,0,.66-.65V6.26A.62.62,0,0,0,1.43,6c.09.09.19.09.28.19A.49.49,0,0,1,1.52,7a.61.61,0,0,1-.65-.18.46.46,0,0,1,0-.65,2.33,2.33,0,0,1,.56-.47,2.1,2.1,0,0,1,2,.19.88.88,0,0,1-.09,1.67,4.48,4.48,0,0,1-.93.28A2.6,2.6,0,0,1,3.1,8,1.16,1.16,0,0,1,4,9.14a1.13,1.13,0,0,1-.74,1.21,5.86,5.86,0,0,0-.74.28H1.62A1.29,1.29,0,0,1,.5,9.7C.59,9.51.59,9.51.59,9.42Z"/><path class="cls-1" d="M5.24,5.7H4.59V5.52h3a2.38,2.38,0,0,1,2.32,2A2.67,2.67,0,0,1,8.5,10.35a3.5,3.5,0,0,1-1,.19H4.68v-.19h.65C5.24,8.68,5.24,7.19,5.24,5.7Zm1.4,0v4.56c.37,0,.74-.1,1.11-.1a.81.81,0,0,0,.56-.55,8.34,8.34,0,0,0,0-3.07c-.09-.47-.37-.75-.74-.75A3.63,3.63,0,0,0,6.64,5.7Z"/></svg>