<svg id="Layer_1" data-name="Layer 1" xmlns="http://www.w3.org/2000/svg" viewBox="0 0 16 16"><defs><style>.cls-1{fill:#515151;}</style></defs><title>icon</title><path class="cls-1" d="M13.33,2.64V2.9H7.2A1.88,1.88,0,0,0,6.5,3,2.61,2.61,0,0,0,4.78,6.44a2,2,0,0,0,1,1.21A3,3,0,0,0,7,8.09H8.84a2,2,0,0,1,.69.08A2.09,2.09,0,0,1,10.83,11a2.29,2.29,0,0,1-2,1.3H2.7v-1.9H8.75a.18.18,0,0,0,.17-.17c0-.18-.08-.26-.25-.26H6.5A4.07,4.07,0,0,1,3.83,8.6,5,5,0,0,1,2.7,6.1,5.89,5.89,0,0,1,2.87,4,4.51,4.51,0,0,1,7.2,1h6.05V2.56A.08.08,0,0,1,13.33,2.64Z"/><path class="cls-1" d="M13.33,3.42v1.9h-6A.23.23,0,0,0,7,5.58a.23.23,0,0,0,.26.26H8.67A3.38,3.38,0,0,1,10,6a4.48,4.48,0,0,1,1.56.78,4.24,4.24,0,0,1,1.81,3.28v.7a.84.84,0,0,1-.08.43A5.05,5.05,0,0,1,12,13.62a4.46,4.46,0,0,1-2.42,1.29c-.18,0-.35.09-.52.09H2.7V13.19c0-.09,0-.09.09-.09H9.1a2.38,2.38,0,0,0,1.64-.87,2.33,2.33,0,0,0,.52-2.33A2.62,2.62,0,0,0,8.75,8H6.85a2,2,0,0,1-1.3-.69,2.06,2.06,0,0,1-.51-2A2.17,2.17,0,0,1,7.2,3.68h6C13.25,3.42,13.33,3.42,13.33,3.42Z"/></svg>