<svg id="Layer_1" data-name="Layer 1" xmlns="http://www.w3.org/2000/svg" viewBox="0 0 16 16"><defs><style>.cls-1{fill:#515151;}</style></defs><title>icon</title><path class="cls-1" d="M6.33,15a2,2,0,0,1-.44-.26,1,1,0,0,1-.27-.62V12.18h-1c-.35,0-.61-.35-.7-.7V5.58H11.7V11.3a.83.83,0,0,1-.88.88h-.71v1.76c0,.53-.08.88-.7,1.06H9.14c-.52-.18-.7-.44-.7-1.06V12.09H7.3V14a.64.64,0,0,1-.09.44c-.09.27-.35.35-.62.44C6.59,15,6.42,15,6.33,15Z"/><path class="cls-1" d="M4,5.31A3.43,3.43,0,0,1,6,2.14a5.6,5.6,0,0,0-.61-.88l-.09-.08c0-.09,0-.09.09-.18h.17l.09.09c.18.26.35.61.53.88.09.09.09.09.18.09a3.62,3.62,0,0,1,1.93-.27,5.19,5.19,0,0,1,1.15.27A.31.31,0,0,0,9.67,2c.18-.27.36-.62.53-.88,0-.09.09-.09.18-.09s.17.09.09.26A6.11,6.11,0,0,0,10,2c-.09.09-.09.17-.18.26A3.31,3.31,0,0,1,11.79,5.4C9.23,5.31,6.68,5.31,4,5.31Zm2.11-1.4a.38.38,0,0,0,.35-.36.35.35,0,1,0-.7,0A.33.33,0,0,0,6.15,3.91Zm3.61,0a.38.38,0,0,0,.35-.36.35.35,0,1,0-.7,0A.33.33,0,0,0,9.76,3.91Z"/><path class="cls-1" d="M14,8.13V9.89a.81.81,0,0,1-1.15.8.78.78,0,0,1-.53-.8V6.28a.85.85,0,0,1,.62-.79,1,1,0,0,1,1,.26,1.29,1.29,0,0,1,.18.53A14,14,0,0,0,14,8.13Z"/><path class="cls-1" d="M1.92,8.13V6.37a.91.91,0,0,1,1.33-.79.9.9,0,0,1,.44.7V10a.82.82,0,0,1-.88.79A.87.87,0,0,1,1.92,10V8.13Z"/></svg>