<svg id="Layer_1" data-name="Layer 1" xmlns="http://www.w3.org/2000/svg" viewBox="0 0 16 16"><defs><style>.cls-1{fill:#515151;}</style></defs><title>icon</title><path class="cls-1" d="M4.6.59A4.14,4.14,0,0,0,.5,4.69V11.4a4.13,4.13,0,0,0,4.1,4.1h6.8a4.13,4.13,0,0,0,4.1-4.1V4.6A4.13,4.13,0,0,0,11.4.5H4.6Zm0,.66h6.8A3.34,3.34,0,0,1,14.75,4.6v6.8a3.34,3.34,0,0,1-3.35,3.35H4.6A3.34,3.34,0,0,1,1.25,11.4V4.6A3.34,3.34,0,0,1,4.6,1.25ZM3.48,5.62A.34.34,0,0,0,3.11,6a.41.41,0,0,0,.37.37A.34.34,0,0,0,3.85,6,.4.4,0,0,0,3.48,5.62ZM7,5.81A2,2,0,0,0,5,8.05,2,2,0,0,0,7,10.28c1.21,0,2-.84,2-2.23A2,2,0,0,0,7,5.81Zm4.38,0c-.93,0-1.58.47-1.58,1.3,0,.66.37,1,1.11,1.22l.56.09c.56.09.84.37.84.65s-.37.65-.93.65a1,1,0,0,1-1-.65H9.72a1.52,1.52,0,0,0,1.68,1.31c1,0,1.68-.56,1.68-1.31s-.38-1-1.21-1.21l-.47-.09c-.56-.1-.74-.28-.74-.66a.75.75,0,0,1,.83-.65.94.94,0,0,1,.94.65h.65A1.71,1.71,0,0,0,11.4,5.81ZM7,6.46c.84,0,1.31.65,1.31,1.59S7.86,9.72,7,9.72s-1.3-.65-1.3-1.67S6.18,6.46,7,6.46ZM3.2,7v3.26h.65V7Z"/></svg>