<svg id="Layer_1" data-name="Layer 1" xmlns="http://www.w3.org/2000/svg" viewBox="0 0 16 16"><defs><style>.cls-1{fill:#515151;}</style></defs><title>icon</title><path class="cls-1" d="M14.17,1.8v.3H7.07a2.2,2.2,0,0,0-.8.1,3,3,0,0,0-2,4,2.36,2.36,0,0,0,1.2,1.4,3.36,3.36,0,0,0,1.4.5H9a2.2,2.2,0,0,1,.8.1,2.41,2.41,0,0,1,1.5,3.3A2.64,2.64,0,0,1,9,13H1.87V10.8h7a.22.22,0,0,0,.2-.2.27.27,0,0,0-.3-.3H6.27a4.7,4.7,0,0,1-3.1-1.6,5.92,5.92,0,0,1-1.3-2.9,6.52,6.52,0,0,1,.2-2.4,5.2,5.2,0,0,1,5-3.5h7V1.7A.1.1,0,0,1,14.17,1.8Z"/><path class="cls-1" d="M14.17,2.7V4.9h-7a.27.27,0,0,0-.3.3.27.27,0,0,0,.3.3h1.6a3.89,3.89,0,0,1,1.5.2,5.08,5.08,0,0,1,1.8.9,4.94,4.94,0,0,1,2.1,3.8v.8a.9.9,0,0,1-.1.5,5.73,5.73,0,0,1-1.4,2.8A5.14,5.14,0,0,1,9.87,16c-.2,0-.4.1-.6.1H1.87V14c0-.1,0-.1.1-.1h7.3a2.75,2.75,0,0,0,1.9-1,2.69,2.69,0,0,0,.6-2.7A3,3,0,0,0,8.87,8H6.67a2.24,2.24,0,0,1-1.5-.8,2.37,2.37,0,0,1-.6-2.3A2.52,2.52,0,0,1,7.07,3H14C14.07,2.7,14.17,2.7,14.17,2.7Z"/></svg>