<svg id="Layer_1" data-name="Layer 1" xmlns="http://www.w3.org/2000/svg" viewBox="0 0 16 16"><defs><style>.cls-1{fill:#515151;}</style></defs><title>icon</title><path class="cls-1" d="M0,12.5a4.51,4.51,0,0,0,1.1-.3A6.33,6.33,0,0,0,4.7,8.8a9.47,9.47,0,0,0,.8-3,28.15,28.15,0,0,0,.2-4.1V1.5h1V5.8a13.58,13.58,0,0,1-.3,2.9,6.82,6.82,0,0,1-1.9,3.4A6.92,6.92,0,0,1,0,14.3Z"/><path class="cls-1" d="M7.1,1.6H8.9V14.5H7.1Z"/><path class="cls-1" d="M9.3,1.6h1v.2a23.58,23.58,0,0,0,.2,3.8,10.54,10.54,0,0,0,1.2,3.8,6.27,6.27,0,0,0,4,3.1.37.37,0,0,1,.3.1v1.9c-.3-.1-.5-.1-.8-.2a8.27,8.27,0,0,1-4.8-3.4A7.71,7.71,0,0,1,9.4,8c-.1-2.2-.1-4.3-.1-6.4Z"/></svg>