<svg id="Layer_1" data-name="Layer 1" xmlns="http://www.w3.org/2000/svg" viewBox="0 0 16 16"><defs><style>.cls-1{fill:#515151;}</style></defs><title>icon</title><path class="cls-1" d="M10,2V5.14a4.84,4.84,0,0,1-.66-.28,5.38,5.38,0,0,0-1.78-.19A3.91,3.91,0,0,0,6,5.05,3.86,3.86,0,0,0,4.25,6.73,2.33,2.33,0,0,0,4,8.33a4.17,4.17,0,0,0,.75,1.78A3.57,3.57,0,0,0,6.5,11.23a4.08,4.08,0,0,0,1.5.19,3.72,3.72,0,0,0,1.69-.37c.09,0,.19-.1.28-.1v3.1c0,.09,0,.09-.09.09a7.1,7.1,0,0,1-2,.28,14.48,14.48,0,0,1-2.07-.19,9.88,9.88,0,0,1-1.78-.65,6.16,6.16,0,0,1-1.59-1.13,8.5,8.5,0,0,1-1.41-1.78A5.53,5.53,0,0,1,.5,8.89V7.58A4.91,4.91,0,0,1,.88,5.89a5.09,5.09,0,0,1,1.4-2.06A10,10,0,0,1,3.87,2.61a11.7,11.7,0,0,1,1.88-.75,9.77,9.77,0,0,1,1.69-.28,8.24,8.24,0,0,1,2.15.19C9.69,1.86,9.88,1.86,10,2Z"/><path class="cls-1" d="M15.5,10.48H10.06V8.23h2.81c.1,0,.19,0,.19.1l.85.84c.28.28.65.56.93.85a4.18,4.18,0,0,1,.66.46Z"/><path class="cls-1" d="M10.06,7.86V5.61H15.5L15.12,6c-.46.38-.84.75-1.31,1.13-.28.19-.47.47-.75.66H13c-.94.09-1.88.09-2.91.09Z"/></svg>