<svg id="Layer_1" data-name="Layer 1" xmlns="http://www.w3.org/2000/svg" viewBox="0 0 16 16"><defs><style>.cls-1{fill:#515151;}</style></defs><title>icon</title><path class="cls-1" d="M6.1,16a2.19,2.19,0,0,1-.5-.3,1.08,1.08,0,0,1-.3-.7v-2.2H4.2c-.4,0-.7-.4-.8-.8V5.25h8.8v6.5a.94.94,0,0,1-1,1h-.8v2c0,.6-.1,1-.8,1.2H9.3c-.6-.2-.8-.5-.8-1.2v-2.1H7.2v2.2a.75.75,0,0,1-.1.5c-.1.3-.4.4-.7.5C6.4,16,6.2,16,6.1,16Z"/><path class="cls-1" d="M3.5,5a3.88,3.88,0,0,1,2.2-3.6,6.07,6.07,0,0,0-.7-1L4.9.25c0-.1,0-.1.1-.2h.2l.1.1c.2.3.4.7.6,1,.1.1.1.1.2.1A4.22,4.22,0,0,1,8.3,1a6.11,6.11,0,0,1,1.3.3.37.37,0,0,0,.3-.1c.2-.3.4-.7.6-1,0-.1.1-.1.2-.1s.2.1.1.3a9.22,9.22,0,0,0-.5.8c-.1.1-.1.2-.2.3a3.72,3.72,0,0,1,2.2,3.6C9.4,5,6.5,5,3.5,5Zm2.4-1.6A.43.43,0,0,0,6.3,3a.4.4,0,1,0-.8,0A.37.37,0,0,0,5.9,3.35Zm4.1,0a.43.43,0,0,0,.4-.4.4.4,0,1,0-.8,0A.37.37,0,0,0,10,3.35Z"/><path class="cls-1" d="M14.8,8.15v2a.91.91,0,0,1-1.3.9.87.87,0,0,1-.6-.9V6.05a1,1,0,0,1,.7-.9,1.13,1.13,0,0,1,1.1.3,1.42,1.42,0,0,1,.2.6A16.23,16.23,0,0,0,14.8,8.15Z"/><path class="cls-1" d="M1.1,8.15v-2a1,1,0,0,1,1.5-.9,1,1,0,0,1,.5.8v4.2a.92.92,0,0,1-1,.9,1,1,0,0,1-1-.9V8.15Z"/></svg>