<svg id="Layer_1" data-name="Layer 1" xmlns="http://www.w3.org/2000/svg" viewBox="0 0 16 16"><defs><style>.cls-1{fill:#515151;}</style></defs><title>icon</title><path class="cls-1" d="M.46,8.79V7.19a.9.9,0,0,0,.09-.47A7.5,7.5,0,0,1,9.05.58,7.51,7.51,0,0,1,15.47,9a7.42,7.42,0,0,1-6,6.43,1.67,1.67,0,0,0-.66.09H7.07a.37.37,0,0,0-.29-.09A7.69,7.69,0,0,1,.55,9.64,2.77,2.77,0,0,0,.46,8.79Zm7.65,5.29h0c0-.19-.1-.28-.1-.37h.47c0-.1,0-.1-.09-.1-.38-.75-.85-1.51-1.23-2.17-.09-.28-.09-.38.19-.38H9.43c-.28-.47-.57-.85-.85-1.32L8.3,9.17c0-.09-.1-.09,0-.19h.18c.19,0,.29.1.48.19.37.1.75.28,1.22.38a.32.32,0,0,0-.09-.19c.09-.09.19,0,.38,0-.1-.19-.19-.28-.29-.47s-.18-.19.1-.19A19.14,19.14,0,0,0,8.67,7.47c-.09-.09-.19-.09-.28.1C7.54,8.79,6.69,10,5.84,11.34c-.09.19,0,.19,0,.29.66.85,1.32,1.6,1.89,2.45,0,.1.09.1.19.19C7.92,13.89,8,14,8.11,14.08ZM6.12,10h0c-.28-.57-.47-1.13-.75-1.7,0-.09-.1-.09-.1-.09A1.82,1.82,0,0,0,2.53,9a3,3,0,0,0-.09,2.36c.57,2,2.08,2.74,3.87,3.5-.09-.38-.09-.76-.19-1.13-.19-1-.37-2.18-.56-3.22,0-.18-.1-.18-.29-.18l-1.13.28a.09.09,0,0,0-.09.09h.28c-.19.1-.28.29-.47.38.09.1.28.1.37.19a1.18,1.18,0,0,1-.37.28h.66c.09,0,.19,0,.19.1.09.38.19.66.28,1A2.82,2.82,0,0,1,3.1,10a.92.92,0,0,1,1.23-.85,3.53,3.53,0,0,1,.85.38A7.43,7.43,0,0,1,6.12,10Zm8.22-3-.28-1.13a.7.7,0,0,0-.19-.57c-.47-.57-.85-1.13-1.32-1.7l-.19-.19c-.57-.19-1.14-.28-1.7-.47-.1,0-.19,0-.19.09l-1,1.51a.19.19,0,0,0,0,.29c.19.56.48,1,.66,1.6a.31.31,0,0,0,.1.19c.47.57.85,1.13,1.32,1.7.1.1.1.19.28.19l.95.28a.35.35,0,0,0,.28-.09c.38-.57.85-1,1.23-1.61C14.25,7.09,14.34,7,14.34,7ZM12.45,9.17h0a3.34,3.34,0,0,1-1,.1.51.51,0,0,0-.38.18c-.56.76-1.13,1.42-1.6,2.18-.1.09-.1.19-.1.38v1.51a1.89,1.89,0,0,0,.85.85h.1c.38-.1.75-.19,1-.29.09,0,.19-.09.28-.19.66-.66,1.32-1.22,2-1.88.1-.1.19-.19.19-.29a17.32,17.32,0,0,1,.1-2.27c0-.18-.1-.18-.19-.18A5.49,5.49,0,0,0,12.45,9.17ZM9,5.87l-1.51.28c-.1,0-.19.09-.29,0a.82.82,0,0,1,.1-.66c.56-.38,1.13-.85,1.7-1.23a2.06,2.06,0,0,1,.56-.38H7.07c.75-.47,1.51-.94,2.17-1.41a1.73,1.73,0,0,1-.66-.1,4.18,4.18,0,0,1,.66-.47.56.56,0,0,1-.38-.1,6.34,6.34,0,0,1,.66-.37c-1.13.37-2.07.66-3.11.94-.1,0-.1.1-.1.19.1,1.7.1,3.4.19,5.1v.76c.85-.67,1.8-1.33,2.65-2-.29.1-.29-.28-.48-.19C8.67,6.05,8.86,6.05,9,5.87ZM2.06,8.42c.1-.1.1-.1.1-.19L3,6c.09-.19.09-.19.28-.09.76.66,1.61,1.22,2.36,1.79.1,0,.1.09.19.09,0-1.7-.09-3.3-.09-5-.19,0-.19.47-.38,0-.1.09-.1.19-.19.19s0-.19-.1-.19A.29.29,0,0,0,5,2.56c-.19.94-.28,1.7-.38,2.55,0,.28,0,.28-.28.09-.57-.37-1-.75-1.61-1.13-.09,0-.09-.09-.19-.09a1.43,1.43,0,0,0-.47.56c0,1-.09,2.18-.09,3.21C2.06,7.94,2,8.23,2.06,8.42Z"/><path class="cls-1" d="M11.6,7.28c1.13.38,1.51-.38,1.7-1.23A1.32,1.32,0,0,1,13,7.47,1.18,1.18,0,0,1,11.6,7.28Z"/><path class="cls-1" d="M12,5.11c-.28,0-.28-.19-.28-.38A.3.3,0,0,1,12,4.45c.09,0,.38.28.38.38S12.26,5.11,12,5.11Z"/><path class="cls-1" d="M10.75,5.2c.19,0,.38,0,.28.19s-.18.19-.28.19-.28-.09-.19-.28S10.75,5.2,10.75,5.2Z"/><path class="cls-1" d="M10.94,13.33a.3.3,0,0,1-.19-.1c-.09-.19-.28-.19-.47-.19h-.19a1.36,1.36,0,0,1-.19-.66.8.8,0,0,1,.47-.47.35.35,0,0,1,.29.1c.28.37.28.37.75.28h0c.29.09.29.38.38.57s0,.18-.09.18A1.38,1.38,0,0,1,10.94,13.33Z"/><path class="cls-1" d="M11.6,10.87c-.09,0-.19-.19-.28-.38s.28-.47.56-.47.29.19.29.29A.61.61,0,0,1,11.6,10.87Z"/><path class="cls-1" d="M12.73,11c.19,0,.29,0,.29.28s-.1.28-.29.28a.3.3,0,0,1-.28-.28C12.55,11,12.64,11,12.73,11Z"/></svg>