<svg id="Layer_1" data-name="Layer 1" xmlns="http://www.w3.org/2000/svg" viewBox="0 0 16 16"><defs><style>.cls-1{fill:#515151;}</style></defs><title>icon</title><path class="cls-1" d="M0,8.84V7.14a.9.9,0,0,0,.1-.5A8,8,0,0,1,15.91,9a7.85,7.85,0,0,1-6.4,6.8,1.7,1.7,0,0,0-.7.1H7a.37.37,0,0,0-.3-.1,8.13,8.13,0,0,1-6.6-6.1A2.77,2.77,0,0,0,0,8.84Zm8.1,5.6h0c0-.2-.1-.3-.1-.4h.5c0-.1,0-.1-.1-.1-.4-.8-.9-1.6-1.3-2.3-.1-.3-.1-.4.2-.4h2.2c-.3-.5-.6-.9-.9-1.4l-.3-.6c0-.1-.1-.1,0-.2h.2c.2,0,.3.1.5.2.4.1.8.3,1.3.4a.35.35,0,0,0-.1-.2c.1-.1.2,0,.4,0-.1-.2-.2-.3-.3-.5s-.2-.2.1-.2a19.23,19.23,0,0,0-1.7-1.3c-.1-.1-.2-.1-.3.1-.9,1.3-1.8,2.6-2.7,4-.1.2,0,.2,0,.3.7.9,1.4,1.7,2,2.6,0,.1.1.1.2.2C7.91,14.24,8,14.34,8.11,14.44ZM6,10.14H6c-.3-.6-.5-1.2-.8-1.8a.1.1,0,0,0-.1-.1,1.92,1.92,0,0,0-2.9.8,3.11,3.11,0,0,0-.1,2.5c.6,2.1,2.2,2.9,4.1,3.7-.1-.4-.1-.8-.2-1.2-.2-1.1-.4-2.3-.6-3.4,0-.2-.1-.2-.3-.2l-1.2.3a.1.1,0,0,0-.1.1h.3c-.2.1-.3.3-.5.4.1.1.3.1.4.2a1.38,1.38,0,0,1-.4.3h.7c.1,0,.2,0,.2.1.1.4.2.7.3,1.1a3,3,0,0,1-2-2.8,1,1,0,0,1,1.3-.9,3.55,3.55,0,0,1,.9.4A9.25,9.25,0,0,1,6,10.14Zm8.7-3.2-.3-1.2a.73.73,0,0,0-.2-.6c-.5-.6-.9-1.2-1.4-1.8l-.2-.2c-.6-.2-1.2-.3-1.8-.5-.1,0-.2,0-.2.1-.3.5-.7,1.1-1,1.6a.19.19,0,0,0,0,.3c.2.6.5,1.1.7,1.7a.35.35,0,0,0,.1.2c.5.6.9,1.2,1.4,1.8.1.1.1.2.3.2s.7.2,1,.3a.37.37,0,0,0,.3-.1c.4-.6.9-1.1,1.3-1.7C14.61,7,14.71,6.94,14.71,6.94Zm-2,2.3h0a3.75,3.75,0,0,1-1.1.1.52.52,0,0,0-.4.2c-.6.8-1.2,1.5-1.7,2.3-.1.1-.1.2-.1.4v1.6a2,2,0,0,0,.9.9h.1c.4-.1.8-.2,1.1-.3.1,0,.2-.1.3-.2.7-.7,1.4-1.3,2.1-2,.1-.1.2-.2.2-.3a19.27,19.27,0,0,1,.1-2.4c0-.2-.1-.2-.2-.2A6.15,6.15,0,0,0,12.71,9.24ZM9,5.74c-.5.1-1,.2-1.6.3-.1,0-.2.1-.3,0s0-.6.1-.7c.6-.4,1.2-.9,1.8-1.3a2.09,2.09,0,0,1,.6-.4H7c.8-.5,1.6-1,2.3-1.5a2,2,0,0,1-.7-.1,4.23,4.23,0,0,1,.7-.5.6.6,0,0,1-.4-.1,5.74,5.74,0,0,1,.7-.4c-1.2.4-2.2.7-3.3,1-.1,0-.1.1-.1.2.1,1.8.1,3.6.2,5.4v.8c.9-.7,1.9-1.4,2.8-2.1-.3.1-.3-.3-.5-.2C8.71,5.94,8.91,5.94,9,5.74Zm-7.3,2.7c.1-.1.1-.1.1-.2l.9-2.4c.1-.2.1-.2.3-.1.8.7,1.7,1.3,2.5,1.9.1,0,.1.1.2.1,0-1.8-.1-3.5-.1-5.3-.2,0-.2.5-.4,0-.1.1-.1.2-.2.2s0-.2-.1-.2a.31.31,0,0,0-.1-.2c-.2,1-.3,1.8-.4,2.7,0,.3,0,.3-.3.1-.6-.4-1.1-.8-1.7-1.2-.1,0-.1-.1-.2-.1a1.47,1.47,0,0,0-.5.6c0,1.1-.1,2.3-.1,3.4C1.71,7.94,1.61,8.24,1.71,8.44Z"/><path class="cls-1" d="M11.81,7.24c1.2.4,1.6-.4,1.8-1.3a1.4,1.4,0,0,1-.3,1.5A1.24,1.24,0,0,1,11.81,7.24Z"/><path class="cls-1" d="M12.21,4.94c-.3,0-.3-.2-.3-.4a.32.32,0,0,1,.3-.3.78.78,0,0,1,.4.4C12.51,4.74,12.51,4.94,12.21,4.94Z"/><path class="cls-1" d="M10.91,5c.2,0,.4,0,.3.2s-.2.2-.3.2-.3-.1-.2-.3S10.91,5,10.91,5Z"/><path class="cls-1" d="M11.11,13.64a.31.31,0,0,1-.2-.1c-.1-.2-.3-.2-.5-.2h-.2a1.45,1.45,0,0,1-.2-.7.82.82,0,0,1,.5-.5.37.37,0,0,1,.3.1c.3.4.3.4.8.3h0c.3.1.3.4.4.6s0,.2-.1.2A1.49,1.49,0,0,1,11.11,13.64Z"/><path class="cls-1" d="M11.81,11c-.1,0-.2-.2-.3-.4s.3-.5.6-.5.3.2.3.3A.65.65,0,0,1,11.81,11Z"/><path class="cls-1" d="M13,11.14c.2,0,.3,0,.3.3a.27.27,0,0,1-.3.3.32.32,0,0,1-.3-.3C12.81,11.14,12.91,11.14,13,11.14Z"/></svg>