<svg id="Layer_1" data-name="Layer 1" xmlns="http://www.w3.org/2000/svg" viewBox="0 0 16 16"><defs><style>.cls-1{fill:#515151;}</style></defs><title>icon</title><path class="cls-1" d="M14,5.45a3.45,3.45,0,0,0,.46,6.08A8.93,8.93,0,0,1,12,15a1.81,1.81,0,0,1-2,.28,3.59,3.59,0,0,0-3.37,0,2,2,0,0,1-2.52-.56A9.07,9.07,0,0,1,1.64,9.57a4.93,4.93,0,0,1,.84-3.93,3.46,3.46,0,0,1,4.3-1.31,4.06,4.06,0,0,0,3,0A3.33,3.33,0,0,1,14,5.45Z"/><path class="cls-1" d="M10.8.5c.46,1.59-1.22,3.55-2.9,3.55C7.43,2.56,9,.59,10.8.5Z"/></svg>