<svg id="Layer_1" data-name="Layer 1" xmlns="http://www.w3.org/2000/svg" viewBox="0 0 16 16"><defs><style>.cls-1{fill:#515151;}</style></defs><title>icon</title><path class="cls-1" d="M10.1,1.55V5a4.88,4.88,0,0,1-.7-.3,5.84,5.84,0,0,0-1.9-.2,4.19,4.19,0,0,0-1.6.4A4.14,4.14,0,0,0,4,6.65a2.49,2.49,0,0,0-.3,1.7,4.55,4.55,0,0,0,.8,1.9,3.87,3.87,0,0,0,1.9,1.2,4.4,4.4,0,0,0,1.6.2,3.92,3.92,0,0,0,1.8-.4c.1,0,.2-.1.3-.1v3.3c0,.1,0,.1-.1.1a7.61,7.61,0,0,1-2.1.3,16.35,16.35,0,0,1-2.2-.2A10.66,10.66,0,0,1,3.8,14a6.57,6.57,0,0,1-1.7-1.2,9,9,0,0,1-1.5-1.9A6,6,0,0,1,0,9V7.55a5.26,5.26,0,0,1,.4-1.8,5.41,5.41,0,0,1,1.5-2.2,10.92,10.92,0,0,1,1.7-1.3,11.92,11.92,0,0,1,2-.8,11.27,11.27,0,0,1,1.8-.3,9,9,0,0,1,2.3.2C9.8,1.45,10,1.45,10.1,1.55Z"/><path class="cls-1" d="M16,10.65H10.2V8.25h3c.1,0,.2,0,.2.1l.9.9c.3.3.7.6,1,.9a4.23,4.23,0,0,1,.7.5Z"/><path class="cls-1" d="M10.2,7.85V5.45H16l-.4.4c-.5.4-.9.8-1.4,1.2-.3.2-.5.5-.8.7h-.1c-1,.1-2,.1-3.1.1Z"/></svg>