<svg id="Layer_1" data-name="Layer 1" xmlns="http://www.w3.org/2000/svg" viewBox="0 0 16 16"><defs><style>.cls-1,.cls-2{fill:#515151;}.cls-2{fill-rule:evenodd;}</style></defs><title>icon</title><path class="cls-1" d="M6.46,1.4V13.6l2.5.9V4.2c0-.5.2-.8.5-.7s.5.6.5,1V8.6c1.6.8,2.8,0,2.8-2.2s-.7-3.2-2.9-4A27.47,27.47,0,0,0,6.46,1.4Z"/><path class="cls-1" d="M9.66,12.7l3.8-1.7c.4-.2.5-.5.1-.6a2.25,2.25,0,0,0-1.4.1l-2.6,1.1V9.7l.1-.1a9.18,9.18,0,0,1,1.8-.5,6.37,6.37,0,0,1,3.3.5c1.1.5,1.3,1.1,1,1.6a2.46,2.46,0,0,1-1,.8l-5.1,2.4"/><path class="cls-1" d="M1.16,12.9c-1.2-.4-1.4-1.2-.9-1.6a5.57,5.57,0,0,1,1.4-.7l3.5-1.4v1.6l-2.6,1c-.5.2-.5.4-.2.6a4.68,4.68,0,0,0,1.7-.2l1.2-.5v1.5h-.2A6.54,6.54,0,0,1,1.16,12.9Z"/><path class="cls-2" d="M15.86,14.4a.52.52,0,0,1-.4.2.76.76,0,0,1-.4-.2.52.52,0,0,1-.2-.4.56.56,0,0,1,.5-.6.76.76,0,0,1,.4.2.52.52,0,0,1,.2.4C16.06,14.1,16,14.3,15.86,14.4Zm-.8-.4a.4.4,0,1,1,.8,0,.46.46,0,0,1-.4.5.37.37,0,0,1-.3-.1C15.16,14.2,15.06,14.1,15.06,14Zm.7.2h0l-.1-.1V14h-.3v.3h-.1v-.6h.4c.1,0,.1.1.1.2V14h0v.2Zm-.1-.3h0v-.1h-.3V14l.3-.1Z"/></svg>