<svg width="18" height="19" viewBox="0 0 18 19" fill="none" xmlns="http://www.w3.org/2000/svg">
<path fill-rule="evenodd" clip-rule="evenodd" d="M7.37168 4.64745C6.39412 4.64745 5.4566 5.03578 4.76536 5.72702C4.07412 6.41826 3.68578 7.35578 3.68578 8.33334C3.68578 9.3109 4.07412 10.2484 4.76536 10.9397C5.4566 11.6309 6.39412 12.0192 7.37168 12.0192C8.34924 12.0192 9.28677 11.6309 9.97801 10.9397C10.6692 10.2484 11.0576 9.3109 11.0576 8.33334C11.0576 7.35578 10.6692 6.41826 9.97801 5.72702C9.28677 5.03578 8.34924 4.64745 7.37168 4.64745ZM2.21143 8.33334C2.21143 7.516 2.40558 6.71035 2.7779 5.98274C3.15022 5.25512 3.69005 4.62635 4.35294 4.14821C5.01583 3.67007 5.78282 3.35623 6.59074 3.23253C7.39867 3.10884 8.22442 3.17883 9 3.43674C9.77558 3.69465 10.4788 4.13311 11.0518 4.716C11.6247 5.29889 12.051 6.00955 12.2956 6.78945C12.5401 7.56935 12.5959 8.39619 12.4583 9.20187C12.3208 10.0075 11.9938 10.769 11.5043 11.4236L15.2647 15.1832C15.403 15.3214 15.4807 15.509 15.4808 15.7045C15.4809 15.9001 15.4033 16.0876 15.265 16.226C15.1268 16.3643 14.9393 16.442 14.7437 16.4421C14.5482 16.4422 14.3606 16.3646 14.2223 16.2263L10.4627 12.4667C9.69565 13.0405 8.78406 13.3894 7.82996 13.4745C6.87587 13.5596 5.91692 13.3774 5.06048 12.9484C4.20405 12.5194 3.48393 11.8604 2.98075 11.0453C2.47757 10.2303 2.21119 9.29123 2.21143 8.33334Z" fill="#BF5FE1"/>
</svg>
