<svg width="18" height="19" viewBox="0 0 18 19" fill="none" xmlns="http://www.w3.org/2000/svg">
<path fill-rule="evenodd" clip-rule="evenodd" d="M8.00048 3.67344C8.32116 2.93405 9.3709 2.93405 9.69158 3.67344L11.1512 7.0394L14.8032 7.38735C15.6052 7.46328 15.9296 8.46142 15.3251 8.99514L12.5754 11.4234L13.373 15.0039C13.5485 15.7912 12.6993 16.4075 12.0048 15.9976L8.84603 14.1333L5.68722 15.9983C4.99279 16.4082 4.14356 15.7919 4.31901 15.0046L5.11664 11.4241L2.36696 8.99588C1.76247 8.46216 2.08683 7.46402 2.88962 7.38809L6.54087 7.04014L8.00048 3.67418V3.67344ZM8.84603 5.43014L7.72036 8.02501L7.54786 8.42456L7.11439 8.46584L4.29837 8.73418L6.4185 10.6066L6.74507 10.8941L6.65071 11.3187L6.03516 14.0802L8.47154 12.642L8.84603 12.4208L9.22052 12.642L11.6569 14.0795L11.0414 11.3187L10.947 10.8941L11.2736 10.6066L13.3937 8.73418L10.5777 8.46584L10.1442 8.42456L9.9717 8.02501L8.84603 5.43014Z" fill="#BF5FE1"/>
</svg>
