<svg width="6" height="5" viewBox="0 0 12 11" fill="none" xmlns="http://www.w3.org/2000/svg">
<path fill-rule="evenodd" clip-rule="evenodd" d="M11.7399 0.471458C11.8094 0.524839 11.8677 0.591387 11.9114 0.667297C11.9551 0.743208 11.9835 0.826993 11.9948 0.913862C12.0061 1.00073 12.0002 1.08898 11.9774 1.17357C11.9546 1.25816 11.9154 1.33742 11.8619 1.40684L5.19528 10.0739C5.13744 10.1491 5.06423 10.2111 4.98053 10.2557C4.89683 10.3003 4.80457 10.3266 4.70992 10.3327C4.61527 10.3388 4.5204 10.3247 4.43165 10.2912C4.3429 10.2577 4.26232 10.2057 4.19528 10.1386L0.861946 6.8051C0.740507 6.67936 0.673311 6.51095 0.67483 6.33614C0.676349 6.16133 0.746462 5.99412 0.870067 5.87051C0.993672 5.7469 1.16088 5.67678 1.33568 5.67526C1.51048 5.67374 1.67888 5.74094 1.80461 5.86239L4.60128 8.65919L10.8046 0.593464C10.858 0.524 10.9245 0.465739 11.0004 0.422009C11.0763 0.378279 11.1601 0.349939 11.247 0.338608C11.3339 0.327277 11.4221 0.333178 11.5067 0.355973C11.5913 0.378768 11.6705 0.418011 11.7399 0.471458Z" fill="white"/>
</svg>
